<svg width="20" height="20" viewBox="0 0 24 24" fill="none" xmlns="http://www.w3.org/2000/svg">
<path d="M12 0C5.4 0 0 5.4 0 12s5.4 12 12 12 12-5.4 12-12S18.66 0 12 0zm5.521 17.34c-.24.359-.577.548-.943.548-.194 0-.399-.07-.581-.221-.301-.2-.462-.486-.462-.793v-4.131c0-.424-.194-.808-.548-1.078a.818.818 0 0 0-.566-.221c-.2 0-.4.07-.566.221-.354.27-.548.654-.548 1.078v4.131c0 .307-.161.593-.462.793-.182.151-.387.221-.581.221-.366 0-.703-.189-.943-.548C7.169 16.477 6.5 14.32 6.5 12S7.169 7.523 8.331 6.66c.24-.359.577-.548.943-.548.194 0 .399.07.581.221.301.2.462.486.462.793v4.131c0 .424.194.808.548 1.078.166.151.366.221.566.221s.4-.07.566-.221c.354-.27.548-.654.548-1.078V6.926c0-.307.161-.593.462-.793.182-.151.387-.221.581-.221.366 0 .703.189.943.548C16.831 7.523 17.5 9.68 17.5 12s-.669 4.477-1.979 5.34z" fill="white"/>
</svg>
